<?xml version="1.0" standalone="no"?>
<!DOCTYPE svg PUBLIC "-//W3C//DTD SVG 20010904//EN"
 "http://www.w3.org/TR/2001/REC-SVG-20010904/DTD/svg10.dtd">
<svg version="1.0" xmlns="http://www.w3.org/2000/svg"
 width="640.000000pt" height="640.000000pt" viewBox="0 0 640.000000 640.000000"
 preserveAspectRatio="xMidYMid meet">

<g transform="translate(0.000000,640.000000) scale(0.100000,-0.100000)"
fill="#000000" stroke="none">
<path d="M0 3200 l0 -3200 3200 0 3200 0 0 3200 0 3200 -3200 0 -3200 0 0
-3200z m4030 2839 c0 -6 -6 -9 -14 -6 -8 3 -20 -2 -28 -11 -11 -15 -11 -15 3
-5 21 16 31 6 18 -18 -13 -25 -4 -24 22 4 21 22 21 22 10 0 -6 -12 -20 -25
-31 -28 -12 -4 -17 -11 -13 -18 11 -18 12 -38 2 -31 -5 3 -7 10 -4 15 4 5 1 9
-4 9 -6 0 -11 -9 -11 -19 0 -11 -6 -21 -12 -24 -9 -3 -8 -10 6 -26 19 -21 19
-21 -2 -21 -13 0 -22 -6 -22 -15 0 -20 4 -30 10 -28 3 1 6 -7 7 -16 1 -12 -5
-18 -15 -17 -9 0 -16 -5 -14 -11 1 -7 -2 -13 -8 -13 -6 0 -10 -32 -10 -75 0
-59 -3 -76 -17 -83 -13 -8 -16 -22 -14 -63 5 -123 6 -121 -24 -146 -21 -19
-25 -27 -15 -33 9 -6 5 -12 -16 -25 -16 -9 -21 -14 -12 -11 10 3 20 1 23 -4 4
-6 18 -7 33 -4 19 4 23 3 13 -4 -11 -8 -10 -11 5 -15 52 -15 84 -17 122 -8 51
11 54 0 7 -29 -26 -16 -47 -21 -75 -18 -22 2 -40 3 -40 3 0 -1 22 -24 49 -52
31 -32 56 -71 68 -103 26 -75 79 -137 152 -181 56 -34 61 -39 37 -39 -15 0
-36 5 -47 11 -11 5 -28 9 -37 7 -20 -4 40 -44 86 -58 21 -7 15 -8 -33 -9 -67
-1 -251 23 -304 38 -19 6 -36 10 -37 8 -1 -1 23 -28 54 -59 71 -70 102 -80
136 -43 l25 26 11 -21 c10 -18 9 -25 -4 -39 -27 -26 -217 -23 -273 5 -51 25
-56 16 -10 -20 47 -37 20 -32 -43 9 -30 19 -68 43 -84 52 -16 10 -48 32 -71
49 l-41 31 4 -51 c2 -28 -1 -67 -6 -86 l-10 -35 -1 33 c-1 18 -10 59 -21 91
-31 92 -17 289 32 455 14 51 22 65 29 55 7 -9 8 -5 3 14 -5 23 -3 29 14 33 17
5 37 33 40 57 1 4 8 15 17 23 8 9 12 20 9 25 -3 6 6 22 20 36 14 14 27 31 27
37 1 6 2 16 3 21 0 6 15 26 33 45 21 23 29 38 23 46 -6 6 -7 14 -3 18 4 4 -1
4 -11 0 -11 -4 -14 -9 -6 -14 7 -4 1 -14 -16 -26 -14 -10 -35 -28 -46 -39
l-20 -20 13 25 c7 14 12 29 11 34 -2 5 3 16 10 25 7 9 22 34 33 56 11 22 27
46 35 53 8 8 10 11 5 8 -6 -2 -11 4 -11 14 0 15 3 17 15 7 12 -10 13 -8 6 12
-5 18 -4 22 6 16 9 -6 11 -3 6 9 -5 14 -3 15 12 6 17 -8 19 -6 17 14 -2 16 1
23 9 19 7 -2 16 1 21 8 5 8 3 10 -6 4 -7 -5 -5 3 5 16 21 27 93 91 82 72 -4
-6 -2 -15 5 -19 7 -4 10 -4 6 1 -11 11 11 47 24 39 6 -4 8 -3 5 3 -9 15 22 53
44 53 10 0 19 -5 19 -11z m-80 -23 c0 -2 -7 -7 -16 -10 -8 -3 -12 -2 -9 4 6
10 25 14 25 6z m95 -94 c-3 -3 -11 0 -18 7 -9 10 -8 11 6 5 10 -3 15 -9 12
-12z m-42 -27 c-3 -9 -8 -14 -10 -11 -3 3 -2 9 2 15 9 16 15 13 8 -4z m-80
-321 c4 -23 3 -24 -10 -11 -9 8 -12 20 -9 26 10 16 13 14 19 -15z m-223 -18
c0 -2 -8 -10 -17 -17 -16 -13 -17 -12 -4 4 13 16 21 21 21 13z m-766 -486 c13
-41 27 -89 30 -106 l5 -31 -32 29 c-18 16 -42 39 -54 51 -12 12 -29 41 -38 65
-14 42 -13 46 5 72 11 16 20 36 20 47 1 28 35 -41 64 -127z m-127 36 c17 -32
23 -127 8 -132 -5 -2 -20 27 -33 64 -12 37 -25 74 -28 83 -10 28 37 15 53 -15z
m-87 -37 c24 -57 22 -102 -8 -139 l-18 -22 -39 21 c-22 12 -50 21 -62 21 -18
0 -23 7 -28 48 -14 100 -14 97 30 98 22 0 49 5 60 12 33 19 42 14 65 -39z
m-186 -32 c8 -61 4 -89 -9 -76 -2 3 -11 30 -20 60 l-15 54 4 -62 c2 -35 3 -63
3 -63 -1 0 -26 9 -55 20 -29 11 -75 20 -102 20 -55 0 -57 4 -39 61 6 19 13 40
15 47 3 9 29 12 106 10 l103 -3 9 -68z m-301 16 c-27 -88 -53 -188 -53 -210 0
-13 -5 -23 -10 -23 -13 0 -7 41 22 155 18 70 41 125 52 125 2 0 -3 -21 -11
-47z m-64 18 c8 -14 5 -40 -10 -97 -11 -44 -23 -81 -25 -84 -3 -2 -13 1 -22 8
-57 41 -83 52 -134 58 -32 4 -58 7 -58 9 0 1 7 22 16 48 15 46 17 47 57 48 23
0 58 6 77 13 52 20 88 19 99 -3z m-455 -33 c-14 -24 -36 -61 -48 -83 -18 -30
-32 -42 -57 -47 -19 -3 -35 -5 -37 -4 -2 3 158 176 163 176 2 0 -8 -19 -21
-42z m47 5 c-10 -21 -24 -57 -31 -79 -10 -34 -17 -41 -36 -41 -13 0 -24 1 -24
3 0 9 65 112 83 132 29 31 30 28 8 -15z m159 26 c0 -5 -7 -32 -16 -59 -16 -48
-17 -49 -62 -56 -26 -4 -55 -11 -65 -16 -16 -8 -18 -7 -12 14 3 12 16 47 28
75 l22 53 53 0 c30 0 52 -4 52 -11z m334 -682 c22 -73 41 -125 83 -224 4 -10
-13 -13 -65 -13 -64 0 -70 2 -76 23 -4 12 -10 96 -13 187 -4 148 3 250 29 415
1 5 5 -60 8 -145 6 -124 13 -173 34 -243z m573 166 c-2 -16 -4 -5 -4 22 0 28
2 40 4 28 2 -13 2 -35 0 -50z m-408 -303 c28 -62 50 -114 49 -115 -11 -9 -80
10 -87 24 -17 30 -51 231 -50 289 l1 57 18 -71 c10 -39 41 -121 69 -184z m75
68 c49 -144 158 -321 253 -415 60 -59 61 -64 33 -178 -50 -197 -164 -401 -290
-518 -34 -31 -59 -57 -57 -57 3 0 26 12 53 27 114 62 267 260 350 453 25 59
53 107 40 70 -3 -8 -7 -51 -10 -95 -7 -133 -65 -535 -87 -610 -40 -133 -119
-266 -183 -307 -28 -17 -28 -19 -6 -13 69 20 131 78 177 168 13 27 26 47 28
45 4 -4 -9 -60 -42 -182 -13 -49 -22 -91 -19 -93 2 -3 7 6 11 19 8 24 75 138
82 138 2 0 2 -15 -1 -32 -3 -18 -10 -67 -16 -108 -25 -165 -46 -227 -99 -284
l-26 -29 45 24 c91 49 256 236 345 391 l25 43 -6 -35 c-25 -132 -96 -307 -174
-430 l-42 -65 52 50 c80 77 181 237 235 372 26 65 55 127 66 139 22 23 25 39
7 28 -9 -5 -9 -2 1 9 15 18 26 23 16 7 -3 -5 -1 -10 4 -10 6 0 11 -7 11 -15 0
-8 9 -19 21 -25 27 -15 67 10 81 51 l10 30 24 -22 c26 -24 35 -87 12 -73 -8 5
-8 1 1 -10 13 -15 15 -16 23 -2 5 9 14 16 21 16 9 0 8 -3 -1 -9 -7 -4 -12 -14
-10 -22 2 -9 -4 -13 -14 -11 -14 2 -18 -4 -18 -27 0 -17 -7 -56 -16 -88 -8
-32 -17 -67 -19 -78 -10 -46 -29 -111 -35 -120 -4 -5 -11 -38 -15 -72 -4 -35
-11 -61 -15 -58 -4 3 -11 -3 -15 -13 -9 -23 -7 -27 13 -24 11 2 13 0 6 -5 -18
-13 -33 -48 -36 -81 -2 -28 -7 -32 -73 -51 -38 -12 -119 -31 -178 -43 l-108
-22 6 -35 c23 -137 23 -129 1 -135 -12 -3 -27 -6 -33 -6 -16 0 -17 27 -1 32 6
2 13 19 14 37 2 27 -3 36 -27 49 -30 17 -39 34 -16 31 27 -3 47 2 47 12 0 7
-7 8 -17 4 -20 -7 -205 -20 -303 -20 l-64 0 -47 94 c-84 170 -123 184 -534
200 -138 5 -210 12 -230 22 -41 19 -62 68 -91 211 -26 127 -48 190 -84 235
-14 18 -20 41 -20 75 0 39 -5 54 -26 76 -24 25 -25 32 -20 93 4 50 2 77 -11
105 -20 47 -42 147 -43 191 0 26 6 36 30 48 16 8 37 15 47 15 54 0 193 117
193 161 0 12 8 28 18 35 14 10 18 31 20 108 l4 96 -36 0 c-33 0 -36 2 -36 28
0 16 -7 50 -16 76 -12 35 -13 51 -5 59 16 16 14 30 -3 24 -29 -11 -39 166 -13
238 l14 39 16 -73 c10 -40 17 -79 17 -85 0 -16 47 -163 59 -184 13 -21 14 -2
2 30 -4 13 -11 43 -14 68 l-7 45 17 -30 c9 -16 27 -45 41 -62 23 -31 28 -33
89 -33 l64 0 -15 22 c-25 36 -18 42 9 10 14 -16 36 -32 50 -34 27 -6 27 -7 4
82 -13 53 -11 70 9 70 13 0 24 -15 36 -50 23 -65 29 -60 12 8 -17 63 -4 77 23
24 11 -21 26 -44 34 -50 14 -12 157 -29 157 -19 0 3 -9 26 -20 52 -31 73 -30
75 53 75 l72 0 28 -48 c16 -26 42 -63 58 -82 30 -35 30 -35 -6 31 -39 73 -44
99 -17 94 9 -2 27 -4 38 -4 15 -1 32 -17 52 -48 30 -46 132 -155 132 -140 0 3
-18 30 -39 58 -22 29 -53 87 -70 129 -30 77 -73 250 -62 250 4 0 14 -24 25
-52z m323 -40 c-3 -8 -6 -5 -6 6 -1 11 2 17 5 13 3 -3 4 -12 1 -19z m-822
-150 c5 -14 2 -18 -13 -18 -16 0 -20 9 -26 61 -10 102 -6 118 13 44 10 -38 22
-78 26 -87z m32 0 c-3 -7 -5 -2 -5 12 0 14 2 19 5 13 2 -7 2 -19 0 -25z m-307
-408 c0 -5 -5 -10 -11 -10 -5 0 -7 5 -4 10 3 6 8 10 11 10 2 0 4 -4 4 -10z
m1785 -207 c2 -29 -1 -51 -8 -55 -9 -6 -9 -10 -1 -15 9 -7 34 -106 34 -135 0
-5 -8 -5 -17 1 -11 5 -26 5 -42 0 -13 -6 -31 -7 -38 -4 -12 4 -13 -5 -8 -50 6
-48 5 -56 -11 -62 -27 -10 -44 -29 -44 -48 0 -9 -5 -25 -10 -36 -7 -13 -7 -19
0 -19 5 0 10 7 10 16 0 8 5 12 11 8 6 -3 15 0 20 7 7 11 9 11 9 -3 0 -9 3 -18
8 -21 4 -2 2 -2 -5 -1 -6 2 -14 -4 -17 -12 -5 -12 1 -14 32 -8 20 4 52 13 70
20 l33 13 -3 -56 c-2 -44 -7 -58 -23 -67 -11 -6 -22 -14 -25 -18 -3 -4 -21
-14 -40 -23 -19 -8 -45 -22 -57 -31 -22 -15 -23 -15 -33 10 -11 30 -21 32 -54
11 -21 -14 -24 -14 -30 1 -3 9 7 64 23 123 16 58 41 160 56 226 49 219 50 219
102 254 25 17 48 29 51 27 2 -3 6 -26 7 -53z m2 -219 c-3 -3 -12 -4 -19 -1 -8
3 -5 6 6 6 11 1 17 -2 13 -5z m20 -156 c-2 -13 -4 -3 -4 22 0 25 2 35 4 23 2
-13 2 -33 0 -45z m-58 25 c0 -25 -1 -25 -8 -8 -5 11 -7 23 -4 28 8 14 13 7 12
-20z m-49 8 c0 -5 -7 -12 -16 -15 -14 -5 -15 -4 -4 9 14 17 20 19 20 6z m85
-59 c-3 -3 -11 0 -18 7 -9 10 -8 11 6 5 10 -3 15 -9 12 -12z m-42 1 c-7 -2
-19 -2 -25 0 -7 3 -2 5 12 5 14 0 19 -2 13 -5z m4 -19 c-3 -3 -12 -4 -19 -1
-8 3 -5 6 6 6 11 1 17 -2 13 -5z m-211 -210 c-4 -9 -9 -15 -11 -12 -3 3 -3 13
1 22 4 9 9 15 11 12 3 -3 3 -13 -1 -22z m94 -8 c0 -19 -29 -48 -41 -41 -10 7
-12 39 -2 48 12 13 43 7 43 -7z m-551 -944 c5 -31 4 -49 -1 -44 -4 4 -10 40
-13 78 -4 70 0 60 14 -34z m64 46 c20 3 27 -1 27 -13 0 -9 -9 -19 -20 -22 -14
-4 -20 -14 -20 -34 0 -16 -5 -29 -11 -29 -6 0 -9 7 -5 15 3 8 0 15 -7 16 -8 0
-9 2 -1 5 8 3 9 16 3 42 -5 20 -8 46 -8 57 1 12 4 8 8 -10 5 -26 10 -30 34
-27z m347 -48 c-14 -4 -36 -8 -50 -8 -22 0 -22 1 5 8 17 4 39 8 50 8 16 0 15
-2 -5 -8z m-26 -27 c13 -4 15 -8 7 -16 -15 -15 -14 -47 2 -48 33 -1 -44 -20
-145 -34 -322 -47 -380 -54 -410 -55 -28 0 -26 -3 -43 88 l-5 27 107 -1 c60 0
146 3 193 9 47 5 93 9 103 9 10 -1 15 4 11 10 -5 7 5 9 31 4 23 -5 35 -4 31 3
-12 18 58 21 118 4z m-1104 -1410 c70 -68 81 -99 18 -53 -85 61 -101 78 -95
94 4 9 9 16 12 16 3 0 32 -26 65 -57z"/>
<path d="M3890 5935 c-7 -8 -9 -15 -6 -15 4 0 14 7 22 15 9 8 11 15 6 15 -5 0
-15 -7 -22 -15z"/>
<path d="M3940 5920 c-9 -6 -10 -10 -3 -10 6 0 15 5 18 10 8 12 4 12 -15 0z"/>
<path d="M3890 5890 c0 -5 5 -10 11 -10 5 0 7 5 4 10 -3 6 -8 10 -11 10 -2 0
-4 -4 -4 -10z"/>
<path d="M3706 5653 c-6 -14 -5 -15 5 -6 7 7 10 15 7 18 -3 3 -9 -2 -12 -12z"/>
<path d="M3753 5414 c-10 -14 -29 -38 -41 -55 -24 -29 -16 -37 19 -19 10 6 19
17 19 24 0 8 7 19 15 26 12 10 15 10 15 -4 0 -9 5 -16 10 -16 7 0 7 6 0 19 -5
11 -7 27 -4 35 10 25 -13 18 -33 -10z"/>
<path d="M3825 5418 c6 -18 4 -20 -11 -14 -15 5 -16 4 -7 -5 6 -6 16 -8 21 -5
13 8 12 46 -1 46 -5 0 -5 -10 -2 -22z"/>
<path d="M3815 5350 c-3 -5 -2 -10 4 -10 5 0 13 5 16 10 3 6 2 10 -4 10 -5 0
-13 -4 -16 -10z"/>
<path d="M2098 3899 c23 -9 22 -11 -32 -55 -31 -25 -56 -47 -56 -48 0 -2 19 3
43 11 51 18 155 32 189 26 l25 -5 -25 -61 c-31 -76 -35 -175 -9 -224 21 -40
56 -73 76 -73 9 1 4 7 -12 16 -27 14 -28 17 -14 37 8 12 22 21 31 21 9 -1 16
2 16 6 0 14 36 21 64 14 15 -3 26 -13 26 -22 0 -10 27 10 68 51 52 52 77 69
105 74 l37 6 -26 25 c-39 40 -49 62 -27 62 11 0 3 9 -22 25 -30 18 -35 25 -20
25 11 0 -2 9 -30 19 -27 10 -78 31 -113 46 -55 23 -80 27 -190 30 -85 2 -119
1 -104 -6z m227 -114 c0 -5 -10 -11 -22 -13 -16 -2 -23 2 -23 13 0 11 7 15 23
13 12 -2 22 -7 22 -13z"/>
<path d="M3466 3447 c-36 -61 -33 -71 5 -13 16 27 28 50 25 53 -2 2 -16 -15
-30 -40z"/>
</g>
</svg>
